<svg xmlns="http://www.w3.org/2000/svg" xmlns:xlink="http://www.w3.org/1999/xlink" width="375" zoomAndPan="magnify" viewBox="0 0 375 374.999991" height="374.999991" preserveAspectRatio="xMidYMid meet" version="1.0"><defs><clipPath id="id1"><path d="M 147.65625 147.65625 L 227.15625 147.65625 L 227.15625 227 L 147.65625 227 Z M 147.65625 147.65625 " clip-rule="nonzero"/></clipPath></defs><g clip-path="url(#id1)"><path fill="rgb(100%, 100%, 100%)" d="M 187.40625 147.808594 C 165.453125 147.808594 147.65625 165.605469 147.65625 187.558594 C 147.65625 207.488281 162.335938 223.945312 181.464844 226.816406 L 181.464844 198.09375 L 171.628906 198.09375 L 171.628906 187.644531 L 181.464844 187.644531 L 181.464844 180.691406 C 181.464844 169.179688 187.074219 164.128906 196.640625 164.128906 C 201.222656 164.128906 203.648438 164.46875 204.792969 164.625 L 204.792969 173.746094 L 198.269531 173.746094 C 194.207031 173.746094 192.789062 177.59375 192.789062 181.9375 L 192.789062 187.648438 L 204.691406 187.648438 L 203.078125 198.097656 L 192.789062 198.097656 L 192.789062 226.90625 C 212.191406 224.269531 227.15625 207.683594 227.15625 187.558594 C 227.15625 165.605469 209.363281 147.808594 187.40625 147.808594 Z M 187.40625 147.808594 " fill-opacity="1" fill-rule="nonzero"/></g></svg>