<svg xmlns="http://www.w3.org/2000/svg" xmlns:xlink="http://www.w3.org/1999/xlink" width="375" zoomAndPan="magnify" viewBox="0 0 375 374.999991" height="374.999991" preserveAspectRatio="xMidYMid meet" version="1.0"><defs><clipPath id="id1"><path d="M 146.410156 146.410156 L 228.910156 146.410156 L 228.910156 228.910156 L 146.410156 228.910156 Z M 146.410156 146.410156 " clip-rule="nonzero"/></clipPath></defs><g clip-path="url(#id1)"><path fill="rgb(100%, 100%, 100%)" d="M 188.839844 202.746094 C 185.539062 202.746094 183.890625 202.980469 180.824219 201.332031 C 176.347656 198.976562 172.339844 194.261719 172.339844 188.367188 C 172.339844 185.304688 172.574219 183.652344 173.988281 180.824219 C 174.460938 179.882812 174.933594 179.175781 175.402344 178.46875 C 175.875 177.761719 176.347656 177.054688 177.054688 176.582031 C 179.410156 174.460938 181.296875 173.28125 184.359375 172.808594 C 189.074219 171.632812 194.023438 172.808594 197.558594 175.875 C 202.746094 180.589844 204.394531 187.425781 201.566406 194.023438 C 200.625 195.910156 200.152344 196.382812 198.976562 197.796875 C 198.976562 198.03125 198.976562 198.03125 198.738281 198.269531 C 196.617188 200.390625 192.847656 202.746094 188.839844 202.746094 Z M 205.101562 164.324219 C 205.101562 166.445312 204.867188 167.390625 206.519531 169.039062 C 206.988281 169.273438 207.226562 169.511719 207.695312 169.746094 C 211.703125 171.394531 215.003906 168.804688 215.003906 165.738281 C 215.003906 164.089844 214.769531 162.910156 213.589844 161.730469 C 213.351562 161.496094 212.644531 160.789062 212.410156 160.554688 C 210.523438 159.847656 208.402344 160.082031 206.753906 161.496094 C 206.046875 161.96875 205.101562 163.144531 205.101562 164.324219 Z M 168.097656 146.410156 L 207.226562 146.410156 C 213.117188 146.410156 218.539062 148.769531 222.546875 152.773438 C 226.554688 156.78125 228.910156 162.203125 228.910156 168.097656 L 228.910156 207.226562 C 228.910156 213.117188 226.554688 218.539062 222.546875 222.546875 C 218.539062 226.554688 213.117188 228.910156 207.226562 228.910156 L 168.097656 228.910156 C 162.203125 228.910156 156.78125 226.554688 152.773438 222.546875 C 148.769531 218.539062 146.410156 213.117188 146.410156 207.226562 L 146.410156 168.097656 C 146.410156 162.203125 148.769531 156.78125 152.773438 152.773438 C 156.78125 148.769531 162.203125 146.410156 168.097656 146.410156 Z M 207.226562 151.832031 L 168.097656 151.832031 C 163.617188 151.832031 159.609375 153.71875 156.546875 156.546875 C 153.71875 159.609375 151.832031 163.617188 151.832031 168.097656 L 151.832031 207.226562 C 151.832031 211.703125 153.71875 215.710938 156.546875 218.773438 C 159.609375 221.601562 163.617188 223.488281 168.097656 223.488281 L 207.226562 223.488281 C 211.703125 223.488281 215.710938 221.601562 218.773438 218.773438 C 221.601562 215.710938 223.488281 211.703125 223.488281 207.226562 L 223.488281 168.097656 C 223.488281 163.617188 221.601562 159.609375 218.773438 156.546875 C 215.710938 153.71875 211.703125 151.832031 207.226562 151.832031 Z M 166.210938 186.011719 C 166.210938 188.367188 165.976562 190.488281 166.683594 192.847656 C 167.152344 195.675781 169.039062 198.976562 170.6875 201.332031 L 173.28125 203.925781 C 174.933594 205.101562 175.402344 205.808594 177.761719 206.988281 C 179.882812 207.933594 183.183594 209.109375 185.539062 209.109375 C 190.488281 209.109375 192.609375 209.347656 196.851562 207.226562 C 198.03125 206.753906 199.210938 206.046875 200.152344 205.339844 L 202.273438 203.6875 C 203.21875 202.980469 202.980469 202.746094 203.453125 202.273438 L 204.632812 200.859375 C 204.867188 200.625 205.101562 200.390625 205.339844 200.152344 C 205.574219 199.683594 206.046875 199.210938 206.28125 198.738281 C 207.933594 195.675781 209.109375 192.375 209.109375 188.601562 C 209.109375 185.066406 208.875 182.003906 207.695312 179.644531 C 206.28125 176.347656 204.867188 173.988281 202.273438 171.632812 C 201.566406 171.160156 201.097656 170.925781 200.625 170.453125 C 198.503906 168.566406 194.496094 166.917969 191.433594 166.445312 C 186.246094 165.503906 180.351562 166.445312 176.347656 169.273438 C 175.167969 169.980469 172.574219 171.867188 171.867188 172.808594 C 171.632812 173.28125 171.632812 173.28125 171.160156 173.519531 C 170.453125 174.226562 169.511719 175.875 169.039062 176.816406 C 167.625 179.175781 166.210938 182.710938 166.210938 186.011719 Z M 166.210938 186.011719 " fill-opacity="1" fill-rule="evenodd"/></g></svg>