<svg xmlns="http://www.w3.org/2000/svg" xmlns:xlink="http://www.w3.org/1999/xlink" width="375" zoomAndPan="magnify" viewBox="0 0 375 374.999991" height="374.999991" preserveAspectRatio="xMidYMid meet" version="1.0"><defs><clipPath id="id1"><path d="M 146.203125 146.203125 L 228.703125 146.203125 L 228.703125 228.703125 L 146.203125 228.703125 Z M 146.203125 146.203125 " clip-rule="nonzero"/></clipPath></defs><g clip-path="url(#id1)"><path fill="rgb(100%, 100%, 100%)" d="M 187.453125 228.703125 C 210.199219 228.703125 228.703125 210.199219 228.703125 187.453125 C 228.703125 164.707031 210.199219 146.203125 187.453125 146.203125 C 164.707031 146.203125 146.203125 164.707031 146.203125 187.453125 C 146.203125 210.199219 164.707031 228.703125 187.453125 228.703125 Z M 187.453125 151.359375 C 207.355469 151.359375 223.546875 167.550781 223.546875 187.453125 C 223.546875 207.355469 207.355469 223.546875 187.453125 223.546875 C 167.550781 223.546875 151.359375 207.355469 151.359375 187.453125 C 151.359375 167.550781 167.550781 151.359375 187.453125 151.359375 Z M 187.453125 151.359375 " fill-opacity="1" fill-rule="nonzero"/></g><path fill="rgb(100%, 100%, 100%)" d="M 173.34375 194.859375 L 178.734375 192.519531 L 177.222656 194.035156 C 176.738281 194.519531 176.464844 195.175781 176.464844 195.855469 L 176.464844 205.945312 C 176.464844 208.257812 179.257812 209.375 180.867188 207.765625 L 186.277344 202.355469 L 198.066406 208.253906 C 199.59375 209.015625 201.441406 208.113281 201.753906 206.40625 L 208.484375 169.414062 C 208.835938 167.425781 206.878906 165.816406 205.003906 166.550781 L 161.292969 183.660156 C 159.332031 184.421875 159.070312 187.105469 160.847656 188.234375 L 170.933594 194.671875 C 171.652344 195.132812 172.5625 195.203125 173.34375 194.859375 Z M 202.585938 173.042969 L 197.300781 202.105469 L 186.917969 196.917969 C 185.914062 196.417969 184.71875 196.625 183.945312 197.402344 L 181.621094 199.726562 L 181.621094 196.933594 L 191.957031 186.597656 C 193.964844 184.59375 191.707031 181.285156 189.109375 182.410156 L 172.550781 189.59375 L 167.894531 186.625 Z M 202.585938 173.042969 " fill-opacity="1" fill-rule="nonzero"/></svg>